<svg xmlns="http://www.w3.org/2000/svg" viewBox="0 0 128 128" width="128" height="128">
  <defs>
    <linearGradient id="grad" x1="0%" y1="0%" x2="100%" y2="100%">
      <stop offset="0%" stop-color="#4F46E5"/>
      <stop offset="100%" stop-color="#06B6D4"/>
    </linearGradient>
    <linearGradient id="bolt" x1="0%" y1="0%" x2="100%" y2="100%">
      <stop offset="0%" stop-color="#FFB224"/>
      <stop offset="100%" stop-color="#F76B15"/>
    </linearGradient>
  </defs>
  <!-- Background -->
  <rect x="4" y="4" width="120" height="120" rx="26" fill="#0F0E17"/>
  <rect x="4" y="4" width="120" height="120" rx="26" fill="none" stroke="url(#grad)" stroke-width="1.5" opacity="0.25"/>
  <!-- Two overlapping terminal panes — multiplexer motif -->
  <!-- Back pane (offset right+down) -->
  <rect x="36" y="28" width="68" height="52" rx="6" fill="#1a1930" stroke="url(#grad)" stroke-width="1.5" opacity="0.5"/>
  <!-- Front pane -->
  <rect x="24" y="20" width="68" height="52" rx="6" fill="#13122a" stroke="url(#grad)" stroke-width="1.8"/>
  <!-- Front pane title bar dots -->
  <circle cx="34" cy="29" r="2.5" fill="#E5484D" opacity="0.7"/>
  <circle cx="42" cy="29" r="2.5" fill="#FFB224" opacity="0.7"/>
  <circle cx="50" cy="29" r="2.5" fill="#46A758" opacity="0.7"/>
  <!-- Front pane cursor prompt -->
  <text x="34" y="50" font-family="ui-monospace, 'SF Mono', monospace" font-weight="600" font-size="13" fill="#06B6D4" opacity="0.8">~$</text>
  <rect x="52" y="40" width="7" height="12" rx="1" fill="#06B6D4" opacity="0.6">
    <animate attributeName="opacity" values="0.6;0.15;0.6" dur="1.2s" repeatCount="indefinite"/>
  </rect>
  <!-- Horizontal line in front pane — split hint -->
  <line x1="30" y1="57" x2="86" y2="57" stroke="url(#grad)" stroke-width="0.8" opacity="0.3"/>
  <!-- Small prompt in bottom half -->
  <text x="34" y="67" font-family="ui-monospace, 'SF Mono', monospace" font-weight="600" font-size="10" fill="#4F46E5" opacity="0.5">~$</text>
  <!-- Lightning bolt — AI spark -->
  <path d="M100 38 L92 54 L99 54 L91 72" fill="none" stroke="url(#bolt)" stroke-width="3" stroke-linecap="round" stroke-linejoin="round"/>
  <!-- "Clux" wordmark -->
  <text x="64" y="104" font-family="ui-rounded, 'SF Pro Rounded', system-ui, sans-serif" font-weight="700" font-size="26" fill="url(#grad)" text-anchor="middle" letter-spacing="-0.5">Clux</text>
</svg>
